# xmcd
#
# Track frame offsets:
#	150
#	15670
#	29231
#	50844
#	64466
#	84225
#	97126
#	113982
#	126226
#	141523
#	160176
#	174993
#
# Disc length: 2579 seconds
#
# Revision: 0
# Processed by: cddbd v1.5.2PL0 Copyright (c) Steve Scherf et al.
# Submitted via: audiograbber 1.83.01
#
DISCID=b10a110c
DTITLE=Chambers Brothers - People Get Ready
DYEAR=1968
DGENRE=Soul
TTITLE0=Yes, Yes, Yes
TTITLE1=Tore Up
TTITLE2=Reconsider Baby
TTITLE3=You've Got Me Running
TTITLE4=People Get Ready
TTITLE5=Money (That's What I Want)
TTITLE6=You Can Run (But You Can't Hide)
TTITLE7=Hooka Tooka
TTITLE8=Call Me
TTITLE9=Summertime
TTITLE10=Your Old Lady
TTITLE11=It's All Over Now
EXTD=
EXTT0=
EXTT1=
EXTT2=
EXTT3=
EXTT4=
EXTT5=
EXTT6=
EXTT7=
EXTT8=
EXTT9=
EXTT10=
EXTT11=
PLAYORDER=
